<?xml version="1.0" standalone="no"?>
<!DOCTYPE svg PUBLIC "-//W3C//DTD SVG 20010904//EN"
 "http://www.w3.org/TR/2001/REC-SVG-20010904/DTD/svg10.dtd">
<svg version="1.0" xmlns="http://www.w3.org/2000/svg"
 width="200.000000pt" height="200.000000pt" viewBox="0 0 200.000000 200.000000"
 preserveAspectRatio="xMidYMid meet">

<g transform="translate(0.000000,200.000000) scale(0.100000,-0.100000)"
fill="#000000" stroke="none">
<path d="M458 1546 l-448 -443 0 -96 c0 -75 3 -96 14 -99 8 -2 210 -197 449
-435 l433 -431 102 -3 101 -3 443 436 443 435 -3 106 -3 105 -440 436 -439
436 -102 0 -103 -1 -447 -443z m572 411 c0 -2 -191 -194 -425 -427 -234 -234
-425 -428 -425 -431 0 -4 98 -103 217 -221 120 -117 299 -293 398 -390 l180
-178 -28 -27 -27 -28 -93 91 c-50 50 -244 241 -429 424 l-337 332 432 429 432
428 53 1 c28 0 52 -1 52 -3z m500 -434 l432 -428 -4 -62 -3 -63 -195 192
c-107 106 -304 300 -437 432 l-242 240 -398 -397 -398 -396 -30 30 -30 30 427
424 c235 234 431 425 437 425 5 0 204 -192 441 -427z m210 -392 l215 -211
-430 -425 -430 -424 -67 -1 c-38 0 -68 3 -68 7 0 4 195 200 433 435 l432 427
-110 108 c-60 60 -240 236 -399 391 l-290 282 29 30 29 31 221 -220 c121 -120
317 -314 435 -430z m-631 456 c59 -56 213 -207 344 -335 l238 -232 -342 -338
c-188 -185 -345 -337 -349 -337 -4 0 -161 151 -349 335 l-342 334 338 338
c186 186 342 338 347 338 6 0 57 -46 115 -103z m-285 -1289 c49 -49 92 -88 97
-86 5 2 131 125 281 273 150 149 328 324 396 390 l122 120 27 -28 28 -28 -275
-271 c-151 -149 -346 -341 -432 -426 l-156 -155 -431 428 -431 428 0 61 0 60
343 -339 c188 -187 382 -379 431 -427z"/>
</g>
</svg>
